<svg xmlns="http://www.w3.org/2000/svg" viewBox="0 0 100 100" preserveAspectRatio="xMidYMid" width="204" height="204" style="shape-rendering: auto; display: block; background: transparent;" xmlns:xlink="http://www.w3.org/1999/xlink"><g><g transform="rotate(0 50 50)">
  <rect fill="#94888a" height="12" width="4" ry="2.16" rx="2" y="32" x="48">
    <animate repeatCount="indefinite" begin="-0.8838383838383839s" dur="1.0101010101010102s" keyTimes="0;1" values="1;0" attributeName="opacity"></animate>
  </rect>
</g><g transform="rotate(45 50 50)">
  <rect fill="#94888a" height="12" width="4" ry="2.16" rx="2" y="32" x="48">
    <animate repeatCount="indefinite" begin="-0.7575757575757576s" dur="1.0101010101010102s" keyTimes="0;1" values="1;0" attributeName="opacity"></animate>
  </rect>
</g><g transform="rotate(90 50 50)">
  <rect fill="#94888a" height="12" width="4" ry="2.16" rx="2" y="32" x="48">
    <animate repeatCount="indefinite" begin="-0.6313131313131313s" dur="1.0101010101010102s" keyTimes="0;1" values="1;0" attributeName="opacity"></animate>
  </rect>
</g><g transform="rotate(135 50 50)">
  <rect fill="#94888a" height="12" width="4" ry="2.16" rx="2" y="32" x="48">
    <animate repeatCount="indefinite" begin="-0.5050505050505051s" dur="1.0101010101010102s" keyTimes="0;1" values="1;0" attributeName="opacity"></animate>
  </rect>
</g><g transform="rotate(180 50 50)">
  <rect fill="#94888a" height="12" width="4" ry="2.16" rx="2" y="32" x="48">
    <animate repeatCount="indefinite" begin="-0.3787878787878788s" dur="1.0101010101010102s" keyTimes="0;1" values="1;0" attributeName="opacity"></animate>
  </rect>
</g><g transform="rotate(225 50 50)">
  <rect fill="#94888a" height="12" width="4" ry="2.16" rx="2" y="32" x="48">
    <animate repeatCount="indefinite" begin="-0.25252525252525254s" dur="1.0101010101010102s" keyTimes="0;1" values="1;0" attributeName="opacity"></animate>
  </rect>
</g><g transform="rotate(270 50 50)">
  <rect fill="#94888a" height="12" width="4" ry="2.16" rx="2" y="32" x="48">
    <animate repeatCount="indefinite" begin="-0.12626262626262627s" dur="1.0101010101010102s" keyTimes="0;1" values="1;0" attributeName="opacity"></animate>
  </rect>
</g><g transform="rotate(315 50 50)">
  <rect fill="#94888a" height="12" width="4" ry="2.16" rx="2" y="32" x="48">
    <animate repeatCount="indefinite" begin="0s" dur="1.0101010101010102s" keyTimes="0;1" values="1;0" attributeName="opacity"></animate>
  </rect>
</g><g></g></g><!-- [ldio] generated by https://loading.io --></svg>