<svg xmlns="http://www.w3.org/2000/svg" xmlns:xlink="http://www.w3.org/1999/xlink" width="130" zoomAndPan="magnify" viewBox="0 0 97.5 30.000001" height="40" preserveAspectRatio="xMidYMid meet" version="1.0"><defs><g/><clipPath id="1298034d29"><path d="M 10.332031 6.628906 L 27.023438 6.628906 L 27.023438 26.226562 L 10.332031 26.226562 Z M 10.332031 6.628906 " clip-rule="nonzero"/></clipPath><clipPath id="3380542dd4"><path d="M 13 10 L 27.023438 10 L 27.023438 21 L 13 21 Z M 13 10 " clip-rule="nonzero"/></clipPath><clipPath id="924521deca"><path d="M 16 15 L 27.023438 15 L 27.023438 23 L 16 23 Z M 16 15 " clip-rule="nonzero"/></clipPath></defs><g clip-path="url(#1298034d29)"><path fill="#38b6ff" d="M 18.765625 6.636719 L 10.328125 11.507812 L 10.328125 21.25 L 18.765625 26.121094 L 27.203125 21.25 L 27.203125 18.8125 L 18.765625 23.683594 L 12.4375 20.03125 L 12.4375 12.722656 L 20.875 7.851562 Z M 18.765625 6.636719 " fill-opacity="1" fill-rule="evenodd"/></g><path fill="#38b6ff" d="M 13.492188 13.332031 L 21.929688 8.460938 L 25.09375 10.289062 L 13.492188 16.988281 Z M 13.492188 13.332031 " fill-opacity="1" fill-rule="evenodd"/><g clip-path="url(#3380542dd4)"><path fill="#5ce1e6" d="M 27.203125 11.507812 L 26.148438 10.898438 L 13.492188 18.203125 L 13.492188 19.421875 L 15.601562 20.640625 L 27.203125 13.941406 Z M 27.203125 11.507812 " fill-opacity="1" fill-rule="evenodd"/></g><g clip-path="url(#924521deca)"><path fill="#0cc0df" d="M 27.203125 15.160156 L 27.203125 17.59375 L 18.765625 22.464844 L 16.65625 21.25 Z M 27.203125 15.160156 " fill-opacity="1" fill-rule="evenodd"/></g><g fill="#38b6ff" fill-opacity="0.4"><g transform="translate(31.386101, 19.837372)"><g><path d="M 0.6875 -7.125 C 0.6875 -7.195312 0.722656 -7.234375 0.796875 -7.234375 L 2.15625 -7.234375 C 2.21875 -7.234375 2.25 -7.195312 2.25 -7.125 L 2.25 -4.421875 C 2.25 -4.378906 2.269531 -4.359375 2.3125 -4.359375 L 4.6875 -4.359375 C 4.726562 -4.359375 4.75 -4.378906 4.75 -4.421875 L 4.75 -7.125 C 4.75 -7.195312 4.785156 -7.234375 4.859375 -7.234375 L 6.203125 -7.234375 C 6.273438 -7.234375 6.3125 -7.195312 6.3125 -7.125 L 6.3125 -0.109375 C 6.3125 -0.0351562 6.273438 0 6.203125 0 L 4.859375 0 C 4.785156 0 4.75 -0.0351562 4.75 -0.109375 L 4.75 -2.890625 C 4.75 -2.929688 4.726562 -2.953125 4.6875 -2.953125 L 2.3125 -2.953125 C 2.269531 -2.953125 2.25 -2.929688 2.25 -2.890625 L 2.25 -0.109375 C 2.25 -0.0351562 2.21875 0 2.15625 0 L 0.796875 0 C 0.722656 0 0.6875 -0.0351562 0.6875 -0.109375 Z M 0.6875 -7.125 "/></g></g></g><g fill="#38b6ff" fill-opacity="0.4"><g transform="translate(38.385665, 19.837372)"><g><path d="M 3.34375 -1.265625 C 3.632812 -1.265625 3.875 -1.332031 4.0625 -1.46875 C 4.257812 -1.613281 4.398438 -1.8125 4.484375 -2.0625 C 4.503906 -2.125 4.519531 -2.195312 4.53125 -2.28125 C 4.539062 -2.363281 4.550781 -2.460938 4.5625 -2.578125 C 4.582031 -2.691406 4.59375 -2.832031 4.59375 -3 C 4.59375 -3.175781 4.59375 -3.382812 4.59375 -3.625 C 4.59375 -3.851562 4.59375 -4.050781 4.59375 -4.21875 C 4.59375 -4.394531 4.582031 -4.539062 4.5625 -4.65625 C 4.550781 -4.769531 4.539062 -4.867188 4.53125 -4.953125 C 4.519531 -5.035156 4.503906 -5.109375 4.484375 -5.171875 C 4.398438 -5.421875 4.257812 -5.613281 4.0625 -5.75 C 3.875 -5.894531 3.632812 -5.96875 3.34375 -5.96875 C 3.039062 -5.96875 2.789062 -5.894531 2.59375 -5.75 C 2.40625 -5.613281 2.273438 -5.421875 2.203125 -5.171875 C 2.179688 -5.109375 2.160156 -5.035156 2.140625 -4.953125 C 2.128906 -4.867188 2.117188 -4.769531 2.109375 -4.65625 C 2.097656 -4.539062 2.085938 -4.394531 2.078125 -4.21875 C 2.078125 -4.050781 2.078125 -3.851562 2.078125 -3.625 C 2.078125 -3.382812 2.078125 -3.175781 2.078125 -3 C 2.085938 -2.832031 2.097656 -2.691406 2.109375 -2.578125 C 2.117188 -2.460938 2.128906 -2.363281 2.140625 -2.28125 C 2.160156 -2.195312 2.179688 -2.125 2.203125 -2.0625 C 2.273438 -1.8125 2.40625 -1.613281 2.59375 -1.46875 C 2.789062 -1.332031 3.039062 -1.265625 3.34375 -1.265625 Z M 3.34375 0.109375 C 2.707031 0.109375 2.15625 -0.03125 1.6875 -0.3125 C 1.21875 -0.601562 0.890625 -1.046875 0.703125 -1.640625 C 0.660156 -1.765625 0.625 -1.882812 0.59375 -2 C 0.570312 -2.125 0.550781 -2.257812 0.53125 -2.40625 C 0.519531 -2.5625 0.507812 -2.734375 0.5 -2.921875 C 0.5 -3.117188 0.5 -3.351562 0.5 -3.625 C 0.5 -3.882812 0.5 -4.109375 0.5 -4.296875 C 0.507812 -4.492188 0.519531 -4.664062 0.53125 -4.8125 C 0.550781 -4.96875 0.570312 -5.101562 0.59375 -5.21875 C 0.625 -5.34375 0.660156 -5.46875 0.703125 -5.59375 C 0.890625 -6.175781 1.21875 -6.613281 1.6875 -6.90625 C 2.15625 -7.207031 2.707031 -7.359375 3.34375 -7.359375 C 3.96875 -7.359375 4.515625 -7.207031 4.984375 -6.90625 C 5.460938 -6.613281 5.796875 -6.175781 5.984375 -5.59375 C 6.023438 -5.46875 6.054688 -5.34375 6.078125 -5.21875 C 6.109375 -5.101562 6.128906 -4.96875 6.140625 -4.8125 C 6.148438 -4.664062 6.160156 -4.492188 6.171875 -4.296875 C 6.179688 -4.109375 6.1875 -3.882812 6.1875 -3.625 C 6.1875 -3.351562 6.179688 -3.117188 6.171875 -2.921875 C 6.160156 -2.734375 6.148438 -2.5625 6.140625 -2.40625 C 6.128906 -2.257812 6.109375 -2.125 6.078125 -2 C 6.054688 -1.882812 6.023438 -1.765625 5.984375 -1.640625 C 5.796875 -1.046875 5.460938 -0.601562 4.984375 -0.3125 C 4.515625 -0.03125 3.96875 0.109375 3.34375 0.109375 Z M 3.34375 0.109375 "/></g></g></g><g fill="#38b6ff" fill-opacity="0.4"><g transform="translate(45.066106, 19.837372)"><g><path d="M 2.25 -1.328125 C 2.25 -1.285156 2.269531 -1.265625 2.3125 -1.265625 L 3.515625 -1.265625 C 3.828125 -1.265625 4.066406 -1.34375 4.234375 -1.5 C 4.398438 -1.664062 4.484375 -1.890625 4.484375 -2.171875 C 4.484375 -2.441406 4.398438 -2.660156 4.234375 -2.828125 C 4.066406 -2.992188 3.828125 -3.078125 3.515625 -3.078125 L 2.3125 -3.078125 C 2.269531 -3.078125 2.25 -3.054688 2.25 -3.015625 Z M 3.421875 -4.28125 C 3.722656 -4.28125 3.957031 -4.351562 4.125 -4.5 C 4.289062 -4.644531 4.375 -4.851562 4.375 -5.125 C 4.375 -5.394531 4.289062 -5.601562 4.125 -5.75 C 3.957031 -5.894531 3.722656 -5.96875 3.421875 -5.96875 L 2.3125 -5.96875 C 2.269531 -5.96875 2.25 -5.945312 2.25 -5.90625 L 2.25 -4.34375 C 2.25 -4.300781 2.269531 -4.28125 2.3125 -4.28125 Z M 0.6875 -7.125 C 0.6875 -7.195312 0.722656 -7.234375 0.796875 -7.234375 L 3.625 -7.234375 C 4.40625 -7.234375 4.984375 -7.054688 5.359375 -6.703125 C 5.734375 -6.347656 5.921875 -5.882812 5.921875 -5.3125 C 5.921875 -4.914062 5.84375 -4.59375 5.6875 -4.34375 C 5.53125 -4.09375 5.332031 -3.898438 5.09375 -3.765625 L 5.09375 -3.75 C 5.207031 -3.707031 5.320312 -3.632812 5.4375 -3.53125 C 5.5625 -3.4375 5.664062 -3.316406 5.75 -3.171875 C 5.84375 -3.035156 5.914062 -2.875 5.96875 -2.6875 C 6.019531 -2.507812 6.046875 -2.316406 6.046875 -2.109375 C 6.046875 -1.390625 5.820312 -0.859375 5.375 -0.515625 C 4.9375 -0.171875 4.328125 0 3.546875 0 L 0.796875 0 C 0.722656 0 0.6875 -0.0351562 0.6875 -0.109375 Z M 0.6875 -7.125 "/></g></g></g><g fill="#38b6ff" fill-opacity="0.4"><g transform="translate(51.555072, 19.837372)"><g><path d="M 2.25 -1.328125 C 2.25 -1.285156 2.269531 -1.265625 2.3125 -1.265625 L 3.515625 -1.265625 C 3.828125 -1.265625 4.066406 -1.34375 4.234375 -1.5 C 4.398438 -1.664062 4.484375 -1.890625 4.484375 -2.171875 C 4.484375 -2.441406 4.398438 -2.660156 4.234375 -2.828125 C 4.066406 -2.992188 3.828125 -3.078125 3.515625 -3.078125 L 2.3125 -3.078125 C 2.269531 -3.078125 2.25 -3.054688 2.25 -3.015625 Z M 3.421875 -4.28125 C 3.722656 -4.28125 3.957031 -4.351562 4.125 -4.5 C 4.289062 -4.644531 4.375 -4.851562 4.375 -5.125 C 4.375 -5.394531 4.289062 -5.601562 4.125 -5.75 C 3.957031 -5.894531 3.722656 -5.96875 3.421875 -5.96875 L 2.3125 -5.96875 C 2.269531 -5.96875 2.25 -5.945312 2.25 -5.90625 L 2.25 -4.34375 C 2.25 -4.300781 2.269531 -4.28125 2.3125 -4.28125 Z M 0.6875 -7.125 C 0.6875 -7.195312 0.722656 -7.234375 0.796875 -7.234375 L 3.625 -7.234375 C 4.40625 -7.234375 4.984375 -7.054688 5.359375 -6.703125 C 5.734375 -6.347656 5.921875 -5.882812 5.921875 -5.3125 C 5.921875 -4.914062 5.84375 -4.59375 5.6875 -4.34375 C 5.53125 -4.09375 5.332031 -3.898438 5.09375 -3.765625 L 5.09375 -3.75 C 5.207031 -3.707031 5.320312 -3.632812 5.4375 -3.53125 C 5.5625 -3.4375 5.664062 -3.316406 5.75 -3.171875 C 5.84375 -3.035156 5.914062 -2.875 5.96875 -2.6875 C 6.019531 -2.507812 6.046875 -2.316406 6.046875 -2.109375 C 6.046875 -1.390625 5.820312 -0.859375 5.375 -0.515625 C 4.9375 -0.171875 4.328125 0 3.546875 0 L 0.796875 0 C 0.722656 0 0.6875 -0.0351562 0.6875 -0.109375 Z M 0.6875 -7.125 "/></g></g></g><g fill="#38b6ff" fill-opacity="0.4"><g transform="translate(58.044038, 19.837372)"><g><path d="M 2.34375 0 C 2.269531 0 2.234375 -0.0351562 2.234375 -0.109375 L 2.234375 -2.890625 L 0.09375 -7.125 C 0.0625 -7.195312 0.0859375 -7.234375 0.171875 -7.234375 L 1.546875 -7.234375 C 1.628906 -7.234375 1.6875 -7.195312 1.71875 -7.125 L 3.015625 -4.484375 L 3.046875 -4.484375 L 4.359375 -7.125 C 4.390625 -7.195312 4.441406 -7.234375 4.515625 -7.234375 L 5.859375 -7.234375 C 5.898438 -7.234375 5.925781 -7.222656 5.9375 -7.203125 C 5.945312 -7.179688 5.945312 -7.15625 5.9375 -7.125 L 3.796875 -2.890625 L 3.796875 -0.109375 C 3.796875 -0.0351562 3.757812 0 3.6875 0 Z M 2.34375 0 "/></g></g></g><g fill="#38b6ff" fill-opacity="0.4"><g transform="translate(64.086219, 19.837372)"><g><path d="M 0.6875 -7.125 C 0.6875 -7.195312 0.722656 -7.234375 0.796875 -7.234375 L 2.15625 -7.234375 C 2.21875 -7.234375 2.25 -7.195312 2.25 -7.125 L 2.25 -1.453125 C 2.25 -1.410156 2.269531 -1.390625 2.3125 -1.390625 L 5.515625 -1.390625 C 5.585938 -1.390625 5.625 -1.351562 5.625 -1.28125 L 5.625 -0.109375 C 5.625 -0.0351562 5.585938 0 5.515625 0 L 0.796875 0 C 0.722656 0 0.6875 -0.0351562 0.6875 -0.109375 Z M 0.6875 -7.125 "/></g></g></g><g fill="#38b6ff" fill-opacity="0.4"><g transform="translate(69.936926, 19.837372)"><g><path d="M 0.6875 -7.125 C 0.6875 -7.195312 0.722656 -7.234375 0.796875 -7.234375 L 2.15625 -7.234375 C 2.21875 -7.234375 2.25 -7.195312 2.25 -7.125 L 2.25 -0.109375 C 2.25 -0.0351562 2.21875 0 2.15625 0 L 0.796875 0 C 0.722656 0 0.6875 -0.0351562 0.6875 -0.109375 Z M 0.6875 -7.125 "/></g></g></g><g fill="#38b6ff" fill-opacity="0.4"><g transform="translate(72.883555, 19.837372)"><g><path d="M 0.6875 -7.125 C 0.6875 -7.195312 0.722656 -7.234375 0.796875 -7.234375 L 2.078125 -7.234375 C 2.148438 -7.234375 2.207031 -7.195312 2.25 -7.125 L 4.8125 -2.578125 L 4.859375 -2.578125 L 4.859375 -7.125 C 4.859375 -7.195312 4.894531 -7.234375 4.96875 -7.234375 L 6.171875 -7.234375 C 6.242188 -7.234375 6.28125 -7.195312 6.28125 -7.125 L 6.28125 -0.109375 C 6.28125 -0.0351562 6.242188 0 6.171875 0 L 4.90625 0 C 4.820312 0 4.757812 -0.0351562 4.71875 -0.109375 L 2.15625 -4.65625 L 2.109375 -4.65625 L 2.109375 -0.109375 C 2.109375 -0.0351562 2.070312 0 2 0 L 0.796875 0 C 0.722656 0 0.6875 -0.0351562 0.6875 -0.109375 Z M 0.6875 -7.125 "/></g></g></g><g fill="#38b6ff" fill-opacity="0.4"><g transform="translate(79.851212, 19.837372)"><g><path d="M 0.6875 -7.125 C 0.6875 -7.195312 0.722656 -7.234375 0.796875 -7.234375 L 2.15625 -7.234375 C 2.21875 -7.234375 2.25 -7.195312 2.25 -7.125 L 2.25 -4 L 4.65625 -7.140625 C 4.695312 -7.203125 4.757812 -7.234375 4.84375 -7.234375 L 6.390625 -7.234375 C 6.421875 -7.234375 6.441406 -7.21875 6.453125 -7.1875 C 6.460938 -7.164062 6.453125 -7.132812 6.421875 -7.09375 L 4.234375 -4.359375 L 6.625 -0.125 C 6.675781 -0.0390625 6.65625 0 6.5625 0 L 5 0 C 4.925781 0 4.875 -0.03125 4.84375 -0.09375 L 3.203125 -3.140625 L 2.25 -1.953125 L 2.25 -0.109375 C 2.25 -0.0351562 2.21875 0 2.15625 0 L 0.796875 0 C 0.722656 0 0.6875 -0.0351562 0.6875 -0.109375 Z M 0.6875 -7.125 "/></g></g></g><g fill="#201f1f" fill-opacity="1"><g transform="translate(31.339054, 19.790327)"><g><path d="M 0.6875 -7.125 C 0.6875 -7.195312 0.722656 -7.234375 0.796875 -7.234375 L 2.15625 -7.234375 C 2.21875 -7.234375 2.25 -7.195312 2.25 -7.125 L 2.25 -4.421875 C 2.25 -4.378906 2.269531 -4.359375 2.3125 -4.359375 L 4.6875 -4.359375 C 4.726562 -4.359375 4.75 -4.378906 4.75 -4.421875 L 4.75 -7.125 C 4.75 -7.195312 4.785156 -7.234375 4.859375 -7.234375 L 6.203125 -7.234375 C 6.273438 -7.234375 6.3125 -7.195312 6.3125 -7.125 L 6.3125 -0.109375 C 6.3125 -0.0351562 6.273438 0 6.203125 0 L 4.859375 0 C 4.785156 0 4.75 -0.0351562 4.75 -0.109375 L 4.75 -2.890625 C 4.75 -2.929688 4.726562 -2.953125 4.6875 -2.953125 L 2.3125 -2.953125 C 2.269531 -2.953125 2.25 -2.929688 2.25 -2.890625 L 2.25 -0.109375 C 2.25 -0.0351562 2.21875 0 2.15625 0 L 0.796875 0 C 0.722656 0 0.6875 -0.0351562 0.6875 -0.109375 Z M 0.6875 -7.125 "/></g></g></g><g fill="#201f1f" fill-opacity="1"><g transform="translate(38.338619, 19.790327)"><g><path d="M 3.34375 -1.265625 C 3.632812 -1.265625 3.875 -1.332031 4.0625 -1.46875 C 4.257812 -1.613281 4.398438 -1.8125 4.484375 -2.0625 C 4.503906 -2.125 4.519531 -2.195312 4.53125 -2.28125 C 4.539062 -2.363281 4.550781 -2.460938 4.5625 -2.578125 C 4.582031 -2.691406 4.59375 -2.832031 4.59375 -3 C 4.59375 -3.175781 4.59375 -3.382812 4.59375 -3.625 C 4.59375 -3.851562 4.59375 -4.050781 4.59375 -4.21875 C 4.59375 -4.394531 4.582031 -4.539062 4.5625 -4.65625 C 4.550781 -4.769531 4.539062 -4.867188 4.53125 -4.953125 C 4.519531 -5.035156 4.503906 -5.109375 4.484375 -5.171875 C 4.398438 -5.421875 4.257812 -5.613281 4.0625 -5.75 C 3.875 -5.894531 3.632812 -5.96875 3.34375 -5.96875 C 3.039062 -5.96875 2.789062 -5.894531 2.59375 -5.75 C 2.40625 -5.613281 2.273438 -5.421875 2.203125 -5.171875 C 2.179688 -5.109375 2.160156 -5.035156 2.140625 -4.953125 C 2.128906 -4.867188 2.117188 -4.769531 2.109375 -4.65625 C 2.097656 -4.539062 2.085938 -4.394531 2.078125 -4.21875 C 2.078125 -4.050781 2.078125 -3.851562 2.078125 -3.625 C 2.078125 -3.382812 2.078125 -3.175781 2.078125 -3 C 2.085938 -2.832031 2.097656 -2.691406 2.109375 -2.578125 C 2.117188 -2.460938 2.128906 -2.363281 2.140625 -2.28125 C 2.160156 -2.195312 2.179688 -2.125 2.203125 -2.0625 C 2.273438 -1.8125 2.40625 -1.613281 2.59375 -1.46875 C 2.789062 -1.332031 3.039062 -1.265625 3.34375 -1.265625 Z M 3.34375 0.109375 C 2.707031 0.109375 2.15625 -0.03125 1.6875 -0.3125 C 1.21875 -0.601562 0.890625 -1.046875 0.703125 -1.640625 C 0.660156 -1.765625 0.625 -1.882812 0.59375 -2 C 0.570312 -2.125 0.550781 -2.257812 0.53125 -2.40625 C 0.519531 -2.5625 0.507812 -2.734375 0.5 -2.921875 C 0.5 -3.117188 0.5 -3.351562 0.5 -3.625 C 0.5 -3.882812 0.5 -4.109375 0.5 -4.296875 C 0.507812 -4.492188 0.519531 -4.664062 0.53125 -4.8125 C 0.550781 -4.96875 0.570312 -5.101562 0.59375 -5.21875 C 0.625 -5.34375 0.660156 -5.46875 0.703125 -5.59375 C 0.890625 -6.175781 1.21875 -6.613281 1.6875 -6.90625 C 2.15625 -7.207031 2.707031 -7.359375 3.34375 -7.359375 C 3.96875 -7.359375 4.515625 -7.207031 4.984375 -6.90625 C 5.460938 -6.613281 5.796875 -6.175781 5.984375 -5.59375 C 6.023438 -5.46875 6.054688 -5.34375 6.078125 -5.21875 C 6.109375 -5.101562 6.128906 -4.96875 6.140625 -4.8125 C 6.148438 -4.664062 6.160156 -4.492188 6.171875 -4.296875 C 6.179688 -4.109375 6.1875 -3.882812 6.1875 -3.625 C 6.1875 -3.351562 6.179688 -3.117188 6.171875 -2.921875 C 6.160156 -2.734375 6.148438 -2.5625 6.140625 -2.40625 C 6.128906 -2.257812 6.109375 -2.125 6.078125 -2 C 6.054688 -1.882812 6.023438 -1.765625 5.984375 -1.640625 C 5.796875 -1.046875 5.460938 -0.601562 4.984375 -0.3125 C 4.515625 -0.03125 3.96875 0.109375 3.34375 0.109375 Z M 3.34375 0.109375 "/></g></g></g><g fill="#201f1f" fill-opacity="1"><g transform="translate(45.01906, 19.790327)"><g><path d="M 2.25 -1.328125 C 2.25 -1.285156 2.269531 -1.265625 2.3125 -1.265625 L 3.515625 -1.265625 C 3.828125 -1.265625 4.066406 -1.34375 4.234375 -1.5 C 4.398438 -1.664062 4.484375 -1.890625 4.484375 -2.171875 C 4.484375 -2.441406 4.398438 -2.660156 4.234375 -2.828125 C 4.066406 -2.992188 3.828125 -3.078125 3.515625 -3.078125 L 2.3125 -3.078125 C 2.269531 -3.078125 2.25 -3.054688 2.25 -3.015625 Z M 3.421875 -4.28125 C 3.722656 -4.28125 3.957031 -4.351562 4.125 -4.5 C 4.289062 -4.644531 4.375 -4.851562 4.375 -5.125 C 4.375 -5.394531 4.289062 -5.601562 4.125 -5.75 C 3.957031 -5.894531 3.722656 -5.96875 3.421875 -5.96875 L 2.3125 -5.96875 C 2.269531 -5.96875 2.25 -5.945312 2.25 -5.90625 L 2.25 -4.34375 C 2.25 -4.300781 2.269531 -4.28125 2.3125 -4.28125 Z M 0.6875 -7.125 C 0.6875 -7.195312 0.722656 -7.234375 0.796875 -7.234375 L 3.625 -7.234375 C 4.40625 -7.234375 4.984375 -7.054688 5.359375 -6.703125 C 5.734375 -6.347656 5.921875 -5.882812 5.921875 -5.3125 C 5.921875 -4.914062 5.84375 -4.59375 5.6875 -4.34375 C 5.53125 -4.09375 5.332031 -3.898438 5.09375 -3.765625 L 5.09375 -3.75 C 5.207031 -3.707031 5.320312 -3.632812 5.4375 -3.53125 C 5.5625 -3.4375 5.664062 -3.316406 5.75 -3.171875 C 5.84375 -3.035156 5.914062 -2.875 5.96875 -2.6875 C 6.019531 -2.507812 6.046875 -2.316406 6.046875 -2.109375 C 6.046875 -1.390625 5.820312 -0.859375 5.375 -0.515625 C 4.9375 -0.171875 4.328125 0 3.546875 0 L 0.796875 0 C 0.722656 0 0.6875 -0.0351562 0.6875 -0.109375 Z M 0.6875 -7.125 "/></g></g></g><g fill="#201f1f" fill-opacity="1"><g transform="translate(51.508026, 19.790327)"><g><path d="M 2.25 -1.328125 C 2.25 -1.285156 2.269531 -1.265625 2.3125 -1.265625 L 3.515625 -1.265625 C 3.828125 -1.265625 4.066406 -1.34375 4.234375 -1.5 C 4.398438 -1.664062 4.484375 -1.890625 4.484375 -2.171875 C 4.484375 -2.441406 4.398438 -2.660156 4.234375 -2.828125 C 4.066406 -2.992188 3.828125 -3.078125 3.515625 -3.078125 L 2.3125 -3.078125 C 2.269531 -3.078125 2.25 -3.054688 2.25 -3.015625 Z M 3.421875 -4.28125 C 3.722656 -4.28125 3.957031 -4.351562 4.125 -4.5 C 4.289062 -4.644531 4.375 -4.851562 4.375 -5.125 C 4.375 -5.394531 4.289062 -5.601562 4.125 -5.75 C 3.957031 -5.894531 3.722656 -5.96875 3.421875 -5.96875 L 2.3125 -5.96875 C 2.269531 -5.96875 2.25 -5.945312 2.25 -5.90625 L 2.25 -4.34375 C 2.25 -4.300781 2.269531 -4.28125 2.3125 -4.28125 Z M 0.6875 -7.125 C 0.6875 -7.195312 0.722656 -7.234375 0.796875 -7.234375 L 3.625 -7.234375 C 4.40625 -7.234375 4.984375 -7.054688 5.359375 -6.703125 C 5.734375 -6.347656 5.921875 -5.882812 5.921875 -5.3125 C 5.921875 -4.914062 5.84375 -4.59375 5.6875 -4.34375 C 5.53125 -4.09375 5.332031 -3.898438 5.09375 -3.765625 L 5.09375 -3.75 C 5.207031 -3.707031 5.320312 -3.632812 5.4375 -3.53125 C 5.5625 -3.4375 5.664062 -3.316406 5.75 -3.171875 C 5.84375 -3.035156 5.914062 -2.875 5.96875 -2.6875 C 6.019531 -2.507812 6.046875 -2.316406 6.046875 -2.109375 C 6.046875 -1.390625 5.820312 -0.859375 5.375 -0.515625 C 4.9375 -0.171875 4.328125 0 3.546875 0 L 0.796875 0 C 0.722656 0 0.6875 -0.0351562 0.6875 -0.109375 Z M 0.6875 -7.125 "/></g></g></g><g fill="#201f1f" fill-opacity="1"><g transform="translate(57.996992, 19.790327)"><g><path d="M 2.34375 0 C 2.269531 0 2.234375 -0.0351562 2.234375 -0.109375 L 2.234375 -2.890625 L 0.09375 -7.125 C 0.0625 -7.195312 0.0859375 -7.234375 0.171875 -7.234375 L 1.546875 -7.234375 C 1.628906 -7.234375 1.6875 -7.195312 1.71875 -7.125 L 3.015625 -4.484375 L 3.046875 -4.484375 L 4.359375 -7.125 C 4.390625 -7.195312 4.441406 -7.234375 4.515625 -7.234375 L 5.859375 -7.234375 C 5.898438 -7.234375 5.925781 -7.222656 5.9375 -7.203125 C 5.945312 -7.179688 5.945312 -7.15625 5.9375 -7.125 L 3.796875 -2.890625 L 3.796875 -0.109375 C 3.796875 -0.0351562 3.757812 0 3.6875 0 Z M 2.34375 0 "/></g></g></g><g fill="#201f1f" fill-opacity="1"><g transform="translate(64.039173, 19.790327)"><g><path d="M 0.6875 -7.125 C 0.6875 -7.195312 0.722656 -7.234375 0.796875 -7.234375 L 2.15625 -7.234375 C 2.21875 -7.234375 2.25 -7.195312 2.25 -7.125 L 2.25 -1.453125 C 2.25 -1.410156 2.269531 -1.390625 2.3125 -1.390625 L 5.515625 -1.390625 C 5.585938 -1.390625 5.625 -1.351562 5.625 -1.28125 L 5.625 -0.109375 C 5.625 -0.0351562 5.585938 0 5.515625 0 L 0.796875 0 C 0.722656 0 0.6875 -0.0351562 0.6875 -0.109375 Z M 0.6875 -7.125 "/></g></g></g><g fill="#201f1f" fill-opacity="1"><g transform="translate(69.88988, 19.790327)"><g><path d="M 0.6875 -7.125 C 0.6875 -7.195312 0.722656 -7.234375 0.796875 -7.234375 L 2.15625 -7.234375 C 2.21875 -7.234375 2.25 -7.195312 2.25 -7.125 L 2.25 -0.109375 C 2.25 -0.0351562 2.21875 0 2.15625 0 L 0.796875 0 C 0.722656 0 0.6875 -0.0351562 0.6875 -0.109375 Z M 0.6875 -7.125 "/></g></g></g><g fill="#201f1f" fill-opacity="1"><g transform="translate(72.836509, 19.790327)"><g><path d="M 0.6875 -7.125 C 0.6875 -7.195312 0.722656 -7.234375 0.796875 -7.234375 L 2.078125 -7.234375 C 2.148438 -7.234375 2.207031 -7.195312 2.25 -7.125 L 4.8125 -2.578125 L 4.859375 -2.578125 L 4.859375 -7.125 C 4.859375 -7.195312 4.894531 -7.234375 4.96875 -7.234375 L 6.171875 -7.234375 C 6.242188 -7.234375 6.28125 -7.195312 6.28125 -7.125 L 6.28125 -0.109375 C 6.28125 -0.0351562 6.242188 0 6.171875 0 L 4.90625 0 C 4.820312 0 4.757812 -0.0351562 4.71875 -0.109375 L 2.15625 -4.65625 L 2.109375 -4.65625 L 2.109375 -0.109375 C 2.109375 -0.0351562 2.070312 0 2 0 L 0.796875 0 C 0.722656 0 0.6875 -0.0351562 0.6875 -0.109375 Z M 0.6875 -7.125 "/></g></g></g><g fill="#201f1f" fill-opacity="1"><g transform="translate(79.804166, 19.790327)"><g><path d="M 0.6875 -7.125 C 0.6875 -7.195312 0.722656 -7.234375 0.796875 -7.234375 L 2.15625 -7.234375 C 2.21875 -7.234375 2.25 -7.195312 2.25 -7.125 L 2.25 -4 L 4.65625 -7.140625 C 4.695312 -7.203125 4.757812 -7.234375 4.84375 -7.234375 L 6.390625 -7.234375 C 6.421875 -7.234375 6.441406 -7.21875 6.453125 -7.1875 C 6.460938 -7.164062 6.453125 -7.132812 6.421875 -7.09375 L 4.234375 -4.359375 L 6.625 -0.125 C 6.675781 -0.0390625 6.65625 0 6.5625 0 L 5 0 C 4.925781 0 4.875 -0.03125 4.84375 -0.09375 L 3.203125 -3.140625 L 2.25 -1.953125 L 2.25 -0.109375 C 2.25 -0.0351562 2.21875 0 2.15625 0 L 0.796875 0 C 0.722656 0 0.6875 -0.0351562 0.6875 -0.109375 Z M 0.6875 -7.125 "/></g></g></g></svg>