<svg xmlns="http://www.w3.org/2000/svg" xmlns:xlink="http://www.w3.org/1999/xlink" width="100" zoomAndPan="magnify" viewBox="0 0 75 30.000001" height="40" preserveAspectRatio="xMidYMid meet" version="1.0"><defs><g/><clipPath id="fab88a48da"><path d="M 4 0 L 29 0 L 29 29 L 4 29 Z M 4 0 " clip-rule="nonzero"/></clipPath><clipPath id="9fce1b355a"><path d="M 32.828125 5.367188 L 10.792969 32.449219 L 0.03125 23.691406 L 22.0625 -3.390625 Z M 32.828125 5.367188 " clip-rule="nonzero"/></clipPath><clipPath id="a50c6cfe2e"><path d="M 21.828125 18.890625 C 27.902344 11.421875 30.417969 3.40625 27.445312 0.988281 C 24.472656 -1.429688 17.136719 2.664062 11.0625 10.132812 C 4.984375 17.601562 2.46875 25.617188 5.441406 28.035156 C 8.414062 30.453125 15.75 26.359375 21.828125 18.890625 Z M 21.828125 18.890625 " clip-rule="nonzero"/></clipPath><clipPath id="aa5da76767"><path d="M 4 0 L 29 0 L 29 29 L 4 29 Z M 4 0 " clip-rule="nonzero"/></clipPath><clipPath id="70cabcc93e"><path d="M 32.828125 5.367188 L 10.839844 32.390625 L 0.144531 23.6875 L 22.132812 -3.335938 Z M 32.828125 5.367188 " clip-rule="nonzero"/></clipPath><clipPath id="655fbf2049"><path d="M 32.824219 5.375 L 10.765625 32.488281 L -0.0234375 23.707031 L 22.035156 -3.40625 Z M 32.824219 5.375 " clip-rule="nonzero"/></clipPath><clipPath id="c81e5d8c57"><path d="M 21.828125 18.886719 C 27.902344 11.425781 30.414062 3.414062 27.445312 0.996094 C 24.472656 -1.417969 17.140625 2.671875 11.070312 10.136719 C 4.996094 17.597656 2.480469 25.609375 5.453125 28.027344 C 8.425781 30.445312 15.753906 26.351562 21.828125 18.886719 Z M 21.828125 18.886719 " clip-rule="nonzero"/></clipPath></defs><g clip-path="url(#fab88a48da)"><g clip-path="url(#9fce1b355a)"><g clip-path="url(#a50c6cfe2e)"><path fill="#ffffff" d="M 32.828125 5.367188 L 10.828125 32.40625 L 0.0625 23.648438 L 22.0625 -3.390625 Z M 32.828125 5.367188 " fill-opacity="1" fill-rule="nonzero"/></g></g></g><g clip-path="url(#aa5da76767)"><g clip-path="url(#70cabcc93e)"><g clip-path="url(#655fbf2049)"><g clip-path="url(#c81e5d8c57)"><path stroke-linecap="butt" transform="matrix(-0.458064, 0.563003, -0.563003, -0.458064, 32.823523, 5.373986)" fill="none" stroke-linejoin="miter" d="M 24.002325 0.00139915 C 10.746863 -0.00279964 0.000466242 4.279281 -0.00227549 9.554577 C 0.00255412 14.830651 10.748927 19.110383 24.005167 19.107011 C 37.260629 19.11121 48.010422 14.833304 48.009767 9.553833 C 48.009112 4.274362 37.261962 0.00220135 24.002325 0.00139915 Z M 24.002325 0.00139915 " stroke="#38b6ff" stroke-width="7" stroke-opacity="1" stroke-miterlimit="4"/></g></g></g></g><g fill="#3d3d3d" fill-opacity="1"><g transform="translate(17.501534, 18.067741)"><g><path d="M 0.8125 0 L 0.8125 -7.0625 L 2.515625 -7.0625 L 2.515625 -4.375 L 4.84375 -4.375 L 4.84375 -7.0625 L 6.515625 -7.0625 L 6.515625 0 L 4.84375 0 L 4.84375 -2.90625 L 2.515625 -2.90625 L 2.515625 0 Z M 0.8125 0 "/></g></g></g><g fill="#3d3d3d" fill-opacity="1"><g transform="translate(24.830988, 18.067741)"><g><path d="M 3.03125 0.125 C 2.300781 0.125 1.6875 -0.117188 1.1875 -0.609375 C 0.644531 -1.140625 0.375 -1.832031 0.375 -2.6875 C 0.375 -3.539062 0.644531 -4.238281 1.1875 -4.78125 C 1.6875 -5.28125 2.300781 -5.53125 3.03125 -5.53125 C 3.75 -5.53125 4.359375 -5.28125 4.859375 -4.78125 C 5.390625 -4.25 5.65625 -3.550781 5.65625 -2.6875 C 5.65625 -1.832031 5.390625 -1.140625 4.859375 -0.609375 C 4.359375 -0.117188 3.75 0.125 3.03125 0.125 Z M 3.03125 -1.234375 C 3.332031 -1.234375 3.5625 -1.363281 3.71875 -1.625 C 3.863281 -1.875 3.9375 -2.226562 3.9375 -2.6875 C 3.9375 -3.664062 3.632812 -4.15625 3.03125 -4.15625 C 2.71875 -4.15625 2.484375 -4.023438 2.328125 -3.765625 C 2.179688 -3.503906 2.109375 -3.144531 2.109375 -2.6875 C 2.109375 -1.71875 2.414062 -1.234375 3.03125 -1.234375 Z M 3.03125 -1.234375 "/></g></g></g><g fill="#3d3d3d" fill-opacity="1"><g transform="translate(30.863113, 18.067741)"><g><path d="M 3.5625 0.125 C 3.0625 0.125 2.597656 -0.109375 2.171875 -0.578125 L 2.140625 -0.578125 L 2 0 L 0.6875 0 L 0.6875 -7.578125 L 2.359375 -7.578125 L 2.359375 -5.75 L 2.328125 -4.953125 C 2.742188 -5.335938 3.207031 -5.53125 3.71875 -5.53125 C 4.363281 -5.53125 4.875 -5.28125 5.25 -4.78125 C 5.632812 -4.289062 5.828125 -3.628906 5.828125 -2.796875 C 5.828125 -1.898438 5.59375 -1.179688 5.125 -0.640625 C 4.695312 -0.128906 4.175781 0.125 3.5625 0.125 Z M 3.171875 -1.25 C 3.441406 -1.25 3.660156 -1.367188 3.828125 -1.609375 C 4.003906 -1.859375 4.09375 -2.242188 4.09375 -2.765625 C 4.09375 -3.691406 3.800781 -4.15625 3.21875 -4.15625 C 2.925781 -4.15625 2.640625 -4.003906 2.359375 -3.703125 L 2.359375 -1.5625 C 2.597656 -1.351562 2.867188 -1.25 3.171875 -1.25 Z M 3.171875 -1.25 "/></g></g></g><g fill="#3d3d3d" fill-opacity="1"><g transform="translate(37.0941, 18.067741)"><g><path d="M 3.5625 0.125 C 3.0625 0.125 2.597656 -0.109375 2.171875 -0.578125 L 2.140625 -0.578125 L 2 0 L 0.6875 0 L 0.6875 -7.578125 L 2.359375 -7.578125 L 2.359375 -5.75 L 2.328125 -4.953125 C 2.742188 -5.335938 3.207031 -5.53125 3.71875 -5.53125 C 4.363281 -5.53125 4.875 -5.28125 5.25 -4.78125 C 5.632812 -4.289062 5.828125 -3.628906 5.828125 -2.796875 C 5.828125 -1.898438 5.59375 -1.179688 5.125 -0.640625 C 4.695312 -0.128906 4.175781 0.125 3.5625 0.125 Z M 3.171875 -1.25 C 3.441406 -1.25 3.660156 -1.367188 3.828125 -1.609375 C 4.003906 -1.859375 4.09375 -2.242188 4.09375 -2.765625 C 4.09375 -3.691406 3.800781 -4.15625 3.21875 -4.15625 C 2.925781 -4.15625 2.640625 -4.003906 2.359375 -3.703125 L 2.359375 -1.5625 C 2.597656 -1.351562 2.867188 -1.25 3.171875 -1.25 Z M 3.171875 -1.25 "/></g></g></g><g fill="#3d3d3d" fill-opacity="1"><g transform="translate(43.325087, 18.067741)"><g><path d="M 1.359375 2.078125 C 1.066406 2.078125 0.800781 2.039062 0.5625 1.96875 L 0.859375 0.6875 C 0.878906 0.695312 0.910156 0.707031 0.953125 0.71875 C 1.078125 0.75 1.164062 0.765625 1.21875 0.765625 C 1.6875 0.765625 1.988281 0.546875 2.125 0.109375 L 2.203125 -0.15625 L 0.125 -5.390625 L 1.828125 -5.390625 L 2.546875 -3.15625 C 2.628906 -2.925781 2.726562 -2.570312 2.84375 -2.09375 C 2.90625 -1.894531 2.945312 -1.738281 2.96875 -1.625 L 3.015625 -1.625 C 3.078125 -1.9375 3.179688 -2.394531 3.328125 -3 C 3.347656 -3.070312 3.359375 -3.125 3.359375 -3.15625 L 4 -5.390625 L 5.59375 -5.390625 L 3.75 0.015625 C 3.46875 0.742188 3.160156 1.257812 2.828125 1.5625 C 2.460938 1.90625 1.972656 2.078125 1.359375 2.078125 Z M 1.359375 2.078125 "/></g></g></g><g fill="#3d3d3d" fill-opacity="1"><g transform="translate(49.044711, 18.067741)"><g><path d="M 5.25 0.09375 C 4.632812 0.03125 3.894531 0 3.03125 0 L 0.8125 0 L 0.8125 -7.0625 L 2.515625 -7.0625 L 2.515625 -1.421875 L 3.890625 -1.421875 C 4.347656 -1.421875 4.800781 -1.441406 5.25 -1.484375 C 5.269531 -1.453125 5.28125 -1.191406 5.28125 -0.703125 C 5.28125 -0.210938 5.269531 0.0507812 5.25 0.09375 Z M 5.25 0.09375 "/></g></g></g><g fill="#3d3d3d" fill-opacity="1"><g transform="translate(54.698051, 18.067741)"><g><path d="M 0.6875 0 L 0.6875 -5.390625 L 2.359375 -5.390625 L 2.359375 0 Z M 1.53125 -6.140625 C 1.238281 -6.140625 1.003906 -6.21875 0.828125 -6.375 C 0.648438 -6.539062 0.5625 -6.75 0.5625 -7 C 0.5625 -7.257812 0.648438 -7.46875 0.828125 -7.625 C 1.003906 -7.789062 1.238281 -7.875 1.53125 -7.875 C 1.8125 -7.875 2.039062 -7.796875 2.21875 -7.640625 C 2.394531 -7.472656 2.484375 -7.265625 2.484375 -7.015625 C 2.484375 -6.753906 2.390625 -6.539062 2.203125 -6.375 C 2.023438 -6.21875 1.800781 -6.140625 1.53125 -6.140625 Z M 1.53125 -6.140625 "/></g></g></g><g fill="#3d3d3d" fill-opacity="1"><g transform="translate(57.737787, 18.067741)"><g><path d="M 0.6875 0 L 0.6875 -5.390625 L 2.0625 -5.390625 L 2.171875 -4.71875 L 2.203125 -4.71875 C 2.753906 -5.257812 3.332031 -5.53125 3.9375 -5.53125 C 5.050781 -5.53125 5.609375 -4.800781 5.609375 -3.34375 L 5.609375 0 L 3.921875 0 L 3.921875 -3.125 C 3.921875 -3.488281 3.875 -3.742188 3.78125 -3.890625 C 3.675781 -4.023438 3.515625 -4.09375 3.296875 -4.09375 C 3.117188 -4.09375 2.957031 -4.050781 2.8125 -3.96875 C 2.695312 -3.90625 2.546875 -3.785156 2.359375 -3.609375 L 2.359375 0 Z M 0.6875 0 "/></g></g></g><g fill="#3d3d3d" fill-opacity="1"><g transform="translate(63.968773, 18.067741)"><g><path d="M 0.6875 0 L 0.6875 -7.578125 L 2.328125 -7.578125 L 2.328125 -3.34375 L 2.359375 -3.34375 L 4 -5.390625 L 5.828125 -5.390625 L 3.921875 -3.171875 L 5.96875 0 L 4.140625 0 L 2.96875 -2.046875 L 2.328125 -1.3125 L 2.328125 0 Z M 0.6875 0 "/></g></g></g></svg>